<svg xmlns="http://www.w3.org/2000/svg" width="1200" height="500" viewBox="0 0 1200 500" role="img" aria-labelledby="hero-title hero-desc">
<title id="hero-title">SYSTEM // AMIRGH23</title><desc id="hero-desc">NEURAL NEXUS 2.0</desc>
<defs><linearGradient id="hero-edge"><stop stop-color="#00F7FF"/><stop offset=".5" stop-color="#8B5CF6"/><stop offset="1" stop-color="#FF2BD6"/></linearGradient><pattern id="hero-grid" width="48" height="48" patternUnits="userSpaceOnUse"><path d="M48 0H0V48" fill="none" stroke="#00F7FF" stroke-opacity=".045"/></pattern><filter id="hero-glow" x="-40%" y="-40%" width="180%" height="180%"><feGaussianBlur stdDeviation="4" result="b"/><feMerge><feMergeNode in="b"/><feMergeNode in="SourceGraphic"/></feMerge></filter><style>.ui{font-family:Oxanium,Rajdhani,Arial,sans-serif}.mono{font-family:'Share Tech Mono','Courier New',monospace}.muted{fill:#7890A8}.bright{fill:#E7FCFF}.cyan{fill:#00F7FF}.pink{fill:#FF2BD6}.green{fill:#39FF14}.label{font-size:12px;letter-spacing:2px}.small{font-size:11px}.pulse{animation:heroPulse 2.8s ease-in-out infinite}.flow{stroke-dasharray:7 12;animation:heroFlow 5s linear infinite}@keyframes heroPulse{50%{opacity:.35}}@keyframes heroFlow{to{stroke-dashoffset:-76}}@media(prefers-reduced-motion:reduce){*{animation:none!important}}</style></defs>
<path d="M18 1H1182L1199 18V482L1182 499H18L1 482V18Z" fill="#02030A" stroke="url(#hero-edge)" stroke-width="2"/><path d="M2 2h1196v496H2z" fill="url(#hero-grid)"/>
<path d="M26 66H1174" stroke="#00F7FF" stroke-opacity=".18"/><text x="34" y="40" class="mono cyan label">SYSTEM // AMIRGH23</text><text x="1166" y="40" text-anchor="end" class="mono muted small">NEURAL NEXUS 2.0</text><g class="ui"><text x="58" y="111" class="mono green label">● NETWORK ONLINE / OMEGA CLEARANCE</text><text x="58" y="222" class="bright" font-size="82" font-weight="800" letter-spacing="5">AMIRGH23</text><text x="61" y="270" fill="url(#hero-edge)" font-size="30" font-weight="700" letter-spacing="12">NEURAL NEXUS</text><text x="61" y="312" class="bright" font-size="18" letter-spacing="3">AUTONOMOUS INTELLIGENCE ARCHITECT</text><text x="61" y="352" class="muted" font-size="15">AI systems that perceive, retrieve, learn and act.</text></g>
  <g transform="translate(58 389)" class="mono"><path d="M0 0h500l15 15v56H0Z" fill="#050816" stroke="#00F7FF" stroke-opacity=".4"/><text x="20" y="28" class="cyan label">THE FUTURE IS NOT PREDICTED.</text><text x="20" y="53" class="bright" font-size="16">IT IS ENGINEERED.</text><rect x="20" y="63" width="455" height="3" fill="#172033"/><rect x="20" y="63" width="428" height="3" fill="url(#hero-edge)"/></g>
  <g transform="translate(880 250)" filter="url(#hero-glow)"><circle r="162" fill="#050816" stroke="#00F7FF" stroke-opacity=".16"/><circle r="126" fill="none" stroke="#FF2BD6" stroke-width="2" class="flow"/><circle r="93" fill="none" stroke="#8B5CF6" stroke-dasharray="3 10"/><circle r="55" fill="#00F7FF" fill-opacity=".12" stroke="#00F7FF"/><circle r="24" fill="#FF2BD6"/><g stroke="#00F7FF" stroke-opacity=".5"><path d="M-186 0h95M91 0h95M0-186v95M0 91v95"/></g><g class="pulse" fill="#39FF14"><circle cx="-126" r="6"/><circle cx="126" r="6"/><circle cy="-126" r="6"/><circle cy="126" r="6"/></g><text y="5" text-anchor="middle" class="mono bright small">CORE</text></g><g class="mono muted small"><text x="1052" y="448">NODE 87558156</text><text x="1052" y="467">SYNC 94%</text></g></svg>
