<svg xmlns="http://www.w3.org/2000/svg" width="1200" height="440" viewBox="0 0 1200 440" role="img" aria-labelledby="identity-title identity-desc">
  <title id="identity-title">AUTHORIZED OPERATOR</title><desc id="identity-desc">Retro-neon arcade interface for AMIRGH23.</desc>
  <defs>
    <linearGradient id="identity-wash" x1="0" y1="0" x2="1" y2="1"><stop stop-color="#16082B"/><stop offset=".48" stop-color="#050510"/><stop offset="1" stop-color="#07192A"/></linearGradient>
    <linearGradient id="identity-neon" x1="0" y1="0" x2="1" y2="0"><stop stop-color="#FF2BD6"/><stop offset=".5" stop-color="#8B5CF6"/><stop offset="1" stop-color="#00F7FF"/></linearGradient>
    <radialGradient id="identity-light"><stop stop-color="#FF2BD6" stop-opacity=".2"/><stop offset=".48" stop-color="#8B5CF6" stop-opacity=".09"/><stop offset="1" stop-color="#00F7FF" stop-opacity="0"/></radialGradient>
    <pattern id="identity-grid" width="54" height="28" patternUnits="userSpaceOnUse"><path d="M54 0H0V28" fill="none" stroke="#00F7FF" stroke-opacity=".08"/></pattern>
    <clipPath id="identity-clip"><path d="M24 0H1148L1200 52V410L1170 440H52L0 388V24Z"/></clipPath>
    <filter id="identity-soft" x="-40%" y="-40%" width="180%" height="180%"><feGaussianBlur stdDeviation="3" result="b"/><feMerge><feMergeNode in="b"/><feMergeNode in="SourceGraphic"/></feMerge></filter>
    <style>.sans{font-family:Inter,'Segoe UI',Arial,sans-serif}.mono{font-family:'SFMono-Regular',Consolas,'Liberation Mono',monospace}.ice{fill:#FFF7FF}.blue{fill:#00F7FF}.soft{fill:#B8B5D1}.faint{fill:#77738F}.mint{fill:#FF2BD6}.label{font-size:11px;letter-spacing:2.6px}.micro{font-size:10px}.pulse{animation:identityPulse 3.2s ease-in-out infinite}@keyframes identityPulse{50%{opacity:.3}}@media(prefers-reduced-motion:reduce){*{animation:none!important}}</style>
  </defs>
  <path d="M24 0H1148L1200 52V410L1170 440H52L0 388V24Z" fill="url(#identity-wash)"/><g clip-path="url(#identity-clip)"><rect y="290" width="1200" height="150" fill="url(#identity-grid)"/><circle cx="1060" cy="115" r="230" fill="url(#identity-light)"/></g><path d="M24 0H1148L1200 52V410L1170 440H52L0 388V24Z" fill="none" stroke="url(#identity-neon)" stroke-opacity=".68" stroke-width="1.5"/>
  <path d="M24 1H218M1 388L52 439H236M1148 1l51 51v82" fill="none" stroke="#FF2BD6" stroke-width="2"/><path d="M38 67H1162" stroke="url(#identity-neon)" stroke-opacity=".28"/><circle cx="38" cy="35" r="3" fill="#FF2BD6" filter="url(#identity-soft)"/><text x="53" y="39" class="mono soft label">AUTHORIZED OPERATOR</text><text x="1162" y="39" text-anchor="end" class="mono faint micro">IDENTITY / 87558156</text>
  
  <g transform="translate(54 94)"><rect width="315" height="300" rx="22" fill="#0B0718" stroke="#00F7FF" stroke-opacity=".58"/><path d="M0 28V0h28M287 0h28v28M0 272v28h28M287 300h28v-28" fill="none" stroke="#FF2BD6" stroke-width="2"/><circle cx="157" cy="112" r="50" fill="#140A26" stroke="#8B5CF6"/><path d="M75 253c12-77 152-77 164 0" fill="#140A26" stroke="#8B5CF6"/><path d="M34 42h32M34 42v32M281 42h-32M281 42v32M34 258h32M34 258v-32M281 258h-32M281 258v-32" fill="none" stroke="#00F7FF" stroke-opacity=".8"/><text x="157" y="280" text-anchor="middle" class="mono mint micro">BIOMETRIC LINK VERIFIED</text></g>
  <g transform="translate(425 102)" class="sans"><text class="mono blue label">OPERATOR 01</text><text y="57" class="ice" font-size="36" font-weight="600">Amirreza Ghaffarian</text><text y="91" class="soft" font-size="17">Autonomous Intelligence Architect</text><text y="135" class="faint" font-size="14">Building systems that retrieve, learn, perceive and act.</text>
  <g transform="translate(0 174)" class="mono"><g><text class="faint micro">CODENAME</text><text y="25" class="ice" font-size="14">AMIRGH23</text></g><g transform="translate(270 0)"><text class="faint micro">STATUS</text><text y="25" class="mint" font-size="14">● OPERATIONAL</text></g><g transform="translate(0 68)"><text class="faint micro">SPECIALIZATION</text><text y="25" class="ice" font-size="14">LLM / RAG / AGENTS / RL</text></g><g transform="translate(270 68)"><text class="faint micro">LOCATION</text><text y="25" class="ice" font-size="14">MASHHAD / IRAN</text></g></g></g></svg>
