<svg xmlns="http://www.w3.org/2000/svg" width="1200" height="450" viewBox="0 0 1200 450" role="img" aria-labelledby="identity-title identity-desc">
<title id="identity-title">IDENTITY // AUTHORIZED OPERATOR</title><desc id="identity-desc">OMEGA ACCESS</desc>
<defs><linearGradient id="identity-edge"><stop stop-color="#00F7FF"/><stop offset=".5" stop-color="#8B5CF6"/><stop offset="1" stop-color="#FF2BD6"/></linearGradient><pattern id="identity-grid" width="48" height="48" patternUnits="userSpaceOnUse"><path d="M48 0H0V48" fill="none" stroke="#00F7FF" stroke-opacity=".045"/></pattern><filter id="identity-glow" x="-40%" y="-40%" width="180%" height="180%"><feGaussianBlur stdDeviation="4" result="b"/><feMerge><feMergeNode in="b"/><feMergeNode in="SourceGraphic"/></feMerge></filter><style>.ui{font-family:Oxanium,Rajdhani,Arial,sans-serif}.mono{font-family:'Share Tech Mono','Courier New',monospace}.muted{fill:#7890A8}.bright{fill:#E7FCFF}.cyan{fill:#00F7FF}.pink{fill:#FF2BD6}.green{fill:#39FF14}.label{font-size:12px;letter-spacing:2px}.small{font-size:11px}.pulse{animation:identityPulse 2.8s ease-in-out infinite}.flow{stroke-dasharray:7 12;animation:identityFlow 5s linear infinite}@keyframes identityPulse{50%{opacity:.35}}@keyframes identityFlow{to{stroke-dashoffset:-76}}@media(prefers-reduced-motion:reduce){*{animation:none!important}}</style></defs>
<path d="M18 1H1182L1199 18V432L1182 449H18L1 432V18Z" fill="#02030A" stroke="url(#identity-edge)" stroke-width="2"/><path d="M2 2h1196v446H2z" fill="url(#identity-grid)"/>
<path d="M26 66H1174" stroke="#FF2BD6" stroke-opacity=".18"/><text x="34" y="40" class="mono cyan label">IDENTITY // AUTHORIZED OPERATOR</text><text x="1166" y="40" text-anchor="end" class="mono muted small">OMEGA ACCESS</text><g transform="translate(45 92)"><g><path d="M0 28L28 0h300l28 28v260l-28 28H28L0 288Z" fill="#050816" stroke="#00F7FF"/><circle cx="178" cy="112" r="48" fill="#070B18" stroke="#00F7FF"/><path d="M90 252c10-80 166-80 176 0" fill="#070B18" stroke="#00F7FF"/><path d="M58 44h34M58 44v34M298 44h-34M298 44v34M58 272h34M58 272v-34M298 272h-34M298 272v-34" fill="none" stroke="#FF2BD6" stroke-width="2"/><path d="M30 286h296" stroke="#172033"/><text x="178" y="306" text-anchor="middle" class="mono green small">BIOMETRIC MATCH // 99.7%</text></g>
  <g transform="translate(410 10)" class="mono"><text class="muted label">AUTHORIZED OPERATOR</text><text y="54" class="bright" font-size="32">AMIRREZA GHAFFARIAN</text><text y="88" class="cyan" font-size="16">AUTONOMOUS INTELLIGENCE ARCHITECT</text><g transform="translate(0 126)"><rect width="650" height="172" fill="#050816" stroke="#8B5CF6" stroke-opacity=".5"/><g class="muted small"><text x="22" y="32">CODENAME</text><text x="340" y="32">STATUS</text><text x="22" y="92">SPECIALIZATION</text><text x="340" y="92">BASE</text></g><g class="bright" font-size="16"><text x="22" y="56">AMIRGH23</text><text x="340" y="56" class="green">● OPERATIONAL</text><text x="22" y="116">LLM / RAG / AGENTS / RL</text><text x="340" y="116">MASHHAD // IRAN</text></g><path d="M22 140h606" stroke="#172033"/><text x="22" y="160" class="pink small">CURRENT MISSION // BUILDING AUTONOMOUS AI SYSTEMS</text></g></g></g></svg>
