<svg xmlns="http://www.w3.org/2000/svg" width="1200" height="560" viewBox="0 0 1200 560" role="img" aria-labelledby="net-title net-desc"><title id="net-title">Neural agent network</title><desc id="net-desc">Ten online AI nodes connected to the AMIRGH23 core.</desc><defs><radialGradient id="net-bg"><stop stop-color="#10113A"/><stop offset="1" stop-color="#02030A"/></radialGradient><filter id="net-glow"><feGaussianBlur stdDeviation="4" result="b"/><feMerge><feMergeNode in="b"/><feMergeNode in="SourceGraphic"/></feMerge></filter><style>.mono{font-family:'Share Tech Mono','Courier New',monospace}.wire{fill:none;stroke:#00F7FF;stroke-width:1.3;stroke-dasharray:5 12;animation:netFlow 4s linear infinite}.node{animation:netPulse 3s ease-in-out infinite;transform-box:fill-box;transform-origin:center}@keyframes netFlow{to{stroke-dashoffset:-68}}@keyframes netPulse{50%{opacity:.65;transform:scale(.97)}}@media(prefers-reduced-motion:reduce){*{animation:none!important}}</style></defs><path d="M16 0H1184L1200 16V544L1184 560H16L0 544V16Z" fill="#02030A" stroke="#8B5CF6"/><ellipse cx="600" cy="280" rx="430" ry="238" fill="url(#net-bg)"/><text x="36" y="40" class="mono" fill="#00F7FF" font-size="16">NEURAL NETWORK TOPOLOGY // ALL SYSTEMS NOMINAL</text>
<g class="wire"><path d="M600 280L180 115M600 280L390 86M600 280L810 86M600 280L1020 115M600 280L1080 280M600 280L1020 445M600 280L810 474M600 280L390 474M600 280L180 445M600 280L120 280"/></g>
<g transform="translate(600 280)" filter="url(#net-glow)"><circle r="92" fill="#050816" stroke="#FF2BD6" stroke-width="2"/><circle r="72" fill="none" stroke="#00F7FF" stroke-dasharray="4 10"/><circle r="44" fill="#00F7FF" fill-opacity=".1" stroke="#00F7FF"/><text y="-4" text-anchor="middle" class="mono" fill="#D9FAFF" font-size="14">AMIRGH23</text><text y="18" text-anchor="middle" class="mono" fill="#39FF14" font-size="11">● CORE ONLINE</text></g>
<g class="mono" text-anchor="middle" font-size="12"> 
  <g class="node" transform="translate(180 115)"><circle r="48" fill="#050816" stroke="#00F7FF"/><text y="-3" fill="#D9FAFF">VISION</text><text y="17" fill="#39FF14" font-size="9">V-01 ● ONLINE</text></g><g class="node" transform="translate(390 86)"><circle r="48" fill="#050816" stroke="#FF2BD6"/><text y="-3" fill="#D9FAFF">RAG</text><text y="17" fill="#39FF14" font-size="9">R-02 ● ONLINE</text></g><g class="node" transform="translate(810 86)"><circle r="48" fill="#050816" stroke="#8B5CF6"/><text y="-3" fill="#D9FAFF">CODE</text><text y="17" fill="#39FF14" font-size="9">C-03 ● ONLINE</text></g><g class="node" transform="translate(1020 115)"><circle r="48" fill="#050816" stroke="#FF304F"/><text y="-3" fill="#D9FAFF">SECURITY</text><text y="17" fill="#39FF14" font-size="9">S-04 ● ONLINE</text></g><g class="node" transform="translate(1080 280)"><circle r="48" fill="#050816" stroke="#00F7FF"/><text y="-3" fill="#D9FAFF">MEMORY</text><text y="17" fill="#39FF14" font-size="9">M-05 ● ONLINE</text></g><g class="node" transform="translate(1020 445)"><circle r="48" fill="#050816" stroke="#FF2BD6"/><text y="-3" fill="#D9FAFF">MCP</text><text y="17" fill="#39FF14" font-size="9">P-06 ● ONLINE</text></g><g class="node" transform="translate(810 474)"><circle r="48" fill="#050816" stroke="#8B5CF6"/><text y="-3" fill="#D9FAFF">OCR</text><text y="17" fill="#39FF14" font-size="9">O-07 ● ONLINE</text></g><g class="node" transform="translate(390 474)"><circle r="48" fill="#050816" stroke="#00F7FF"/><text y="-3" fill="#D9FAFF">QDRANT</text><text y="17" fill="#39FF14" font-size="9">Q-08 ● ONLINE</text></g><g class="node" transform="translate(180 445)"><circle r="48" fill="#050816" stroke="#FF2BD6"/><text y="-3" fill="#D9FAFF">AGENTS</text><text y="17" fill="#39FF14" font-size="9">A-09 ● ONLINE</text></g><g class="node" transform="translate(120 280)"><circle r="48" fill="#050816" stroke="#8B5CF6"/><text y="-3" fill="#D9FAFF">TOOLS</text><text y="17" fill="#39FF14" font-size="9">T-10 ● ONLINE</text></g>
</g></svg>
