<svg xmlns="http://www.w3.org/2000/svg" width="1200" height="480" viewBox="0 0 1200 480" role="img" aria-labelledby="core-title core-desc"><title id="core-title">Neural core dashboard</title><desc id="core-desc">System status modules generated from profile configuration and public GitHub data.</desc><defs><style>.name,.value,.meta{font-family:'Share Tech Mono','Courier New',monospace}.name{fill:#60758F;font-size:11px}.value{fill:#D9FAFF;font-size:15px}.meta{fill:#60758F;font-size:9px}</style></defs><path d="M16 0H1184L1200 16V464L1184 480H16L0 464V16Z" fill="#02030A" stroke="#8B5CF6"/><text x="38" y="45" class="name" fill="#00F7FF" font-size="17">NEURAL CORE // SYSTEM TELEMETRY</text><g transform="translate(38 82)"><path d="M0 12L12 0h328l12 12v140l-12 12H0Z" fill="#050816" stroke="#00F7FF" stroke-opacity=".55"/><text x="18" y="31" class="name">NEURAL CORE</text><text x="18" y="67" class="value">94%</text><rect x="18" y="91" width="316" height="6" fill="#172033"/><rect x="18" y="91" width="297" height="6" fill="#00F7FF"/><path d="M18 126l35-11 35 5 35-24 35 15 35-31 35 22 35-9 35 18" fill="none" stroke="#00F7FF" stroke-opacity=".7"/><text x="18" y="148" class="meta">ID N-01 // UPDATE 2026-07-22</text></g><g transform="translate(414 82)"><path d="M0 12L12 0h328l12 12v140l-12 12H0Z" fill="#050816" stroke="#FF2BD6" stroke-opacity=".55"/><text x="18" y="31" class="name">AGENT NETWORK</text><text x="18" y="67" class="value">16 NODES</text><rect x="18" y="91" width="316" height="6" fill="#172033"/><rect x="18" y="91" width="253" height="6" fill="#FF2BD6"/><path d="M18 126l35-11 35 5 35-24 35 15 35-31 35 22 35-9 35 18" fill="none" stroke="#FF2BD6" stroke-opacity=".7"/><text x="18" y="148" class="meta">ID N-02 // UPDATE 2026-07-22</text></g><g transform="translate(790 82)"><path d="M0 12L12 0h328l12 12v140l-12 12H0Z" fill="#050816" stroke="#8B5CF6" stroke-opacity=".55"/><text x="18" y="31" class="name">VECTOR MEMORY</text><text x="18" y="67" class="value">16 REPOS</text><rect x="18" y="91" width="316" height="6" fill="#172033"/><rect x="18" y="91" width="240" height="6" fill="#8B5CF6"/><path d="M18 126l35-11 35 5 35-24 35 15 35-31 35 22 35-9 35 18" fill="none" stroke="#8B5CF6" stroke-opacity=".7"/><text x="18" y="148" class="meta">ID N-03 // UPDATE 2026-07-22</text></g><g transform="translate(38 272)"><path d="M0 12L12 0h328l12 12v140l-12 12H0Z" fill="#050816" stroke="#39FF14" stroke-opacity=".55"/><text x="18" y="31" class="name">SECURITY LAYER</text><text x="18" y="67" class="value">ZERO TRUST ACTIVE</text><rect x="18" y="91" width="316" height="6" fill="#172033"/><rect x="18" y="91" width="278" height="6" fill="#39FF14"/><path d="M18 126l35-11 35 5 35-24 35 15 35-31 35 22 35-9 35 18" fill="none" stroke="#39FF14" stroke-opacity=".7"/><text x="18" y="148" class="meta">ID N-04 // UPDATE 2026-07-22</text></g><g transform="translate(414 272)"><path d="M0 12L12 0h328l12 12v140l-12 12H0Z" fill="#050816" stroke="#00F7FF" stroke-opacity=".55"/><text x="18" y="31" class="name">MODEL ROUTER</text><text x="18" y="67" class="value">OPERATIONAL</text><rect x="18" y="91" width="316" height="6" fill="#172033"/><rect x="18" y="91" width="259" height="6" fill="#00F7FF"/><path d="M18 126l35-11 35 5 35-24 35 15 35-31 35 22 35-9 35 18" fill="none" stroke="#00F7FF" stroke-opacity=".7"/><text x="18" y="148" class="meta">ID N-05 // UPDATE 2026-07-22</text></g><g transform="translate(790 272)"><path d="M0 12L12 0h328l12 12v140l-12 12H0Z" fill="#050816" stroke="#FF2BD6" stroke-opacity=".55"/><text x="18" y="31" class="name">COMPUTE NODE</text><text x="18" y="67" class="value">RTX 4090 // 24GB</text><rect x="18" y="91" width="316" height="6" fill="#172033"/><rect x="18" y="91" width="284" height="6" fill="#FF2BD6"/><path d="M18 126l35-11 35 5 35-24 35 15 35-31 35 22 35-9 35 18" fill="none" stroke="#FF2BD6" stroke-opacity=".7"/><text x="18" y="148" class="meta">ID N-06 // UPDATE 2026-07-22</text></g></svg>